<?xml version="1.0" encoding="utf-8"?>
<!-- Generator: Adobe Illustrator 16.0.0, SVG Export Plug-In . SVG Version: 6.00 Build 0)  -->
<!DOCTYPE svg PUBLIC "-//W3C//DTD SVG 1.1//EN" "http://www.w3.org/Graphics/SVG/1.1/DTD/svg11.dtd">
<svg version="1.1" id="Layer_1" xmlns="http://www.w3.org/2000/svg" xmlns:xlink="http://www.w3.org/1999/xlink" x="0px" y="0px"
	 width="24px" height="24px" viewBox="0 0 24 24" enable-background="new 0 0 24 24" xml:space="preserve">
<g>
	<path fill="none" stroke="#FFFFFF" stroke-miterlimit="10" d="M17.939,17.939C16.23,19.243,14.148,19.965,12,20c-7,0-11-8-11-8
		c1.244-2.318,2.969-4.343,5.06-5.94 M9.9,4.24C10.588,4.079,11.293,3.999,12,4c7,0,11,8,11,8c-0.607,1.136-1.331,2.205-2.16,3.189
		 M14.12,14.12c-1.13,1.212-3.028,1.279-4.24,0.149c-1.212-1.129-1.279-3.028-0.149-4.24C9.778,9.978,9.828,9.928,9.88,9.88"/>
	<line fill="none" stroke="#FFFFFF" stroke-miterlimit="10" x1="1" y1="1" x2="23" y2="23"/>
</g>
</svg>
