<?xml version="1.0" encoding="utf-8"?>
<!-- Generator: Adobe Illustrator 16.0.0, SVG Export Plug-In . SVG Version: 6.00 Build 0)  -->
<!DOCTYPE svg PUBLIC "-//W3C//DTD SVG 1.1//EN" "http://www.w3.org/Graphics/SVG/1.1/DTD/svg11.dtd">
<svg version="1.1" id="Layer_1" xmlns="http://www.w3.org/2000/svg" xmlns:xlink="http://www.w3.org/1999/xlink" x="0px" y="0px"
	 width="24px" height="24px" viewBox="0 0 24 24" enable-background="new 0 0 24 24" xml:space="preserve">
<g>
	<g>
		<path fill="#FFFFFF" d="M12,20.5c-7.226,0-11.278-7.938-11.447-8.276L0.441,12l0.112-0.224C0.722,11.438,4.774,3.5,12,3.5
			c7.226,0,11.278,7.938,11.447,8.276L23.559,12l-0.111,0.224C23.278,12.562,19.226,20.5,12,20.5z M1.567,12
			C2.272,13.269,6.039,19.5,12,19.5c5.97,0,9.729-6.229,10.433-7.5C21.728,10.731,17.961,4.5,12,4.5C6.03,4.5,2.271,10.729,1.567,12
			z"/>
	</g>
	<g>
		<path fill="#FFFFFF" d="M12,15.5c-1.93,0-3.5-1.57-3.5-3.5s1.57-3.5,3.5-3.5s3.5,1.57,3.5,3.5S13.93,15.5,12,15.5z M12,9.5
			c-1.378,0-2.5,1.122-2.5,2.5c0,1.379,1.122,2.5,2.5,2.5c1.379,0,2.5-1.121,2.5-2.5C14.5,10.622,13.379,9.5,12,9.5z"/>
	</g>
</g>
</svg>
