<?xml version="1.0" encoding="utf-8"?>
<!-- Generator: Adobe Illustrator 16.0.0, SVG Export Plug-In . SVG Version: 6.00 Build 0)  -->
<!DOCTYPE svg PUBLIC "-//W3C//DTD SVG 1.1//EN" "http://www.w3.org/Graphics/SVG/1.1/DTD/svg11.dtd">
<svg version="1.1" id="Layer_1" xmlns="http://www.w3.org/2000/svg" xmlns:xlink="http://www.w3.org/1999/xlink" x="0px" y="0px"
	 width="293.895px" height="85.105px" viewBox="0 0 293.895 85.105" enable-background="new 0 0 293.895 85.105"
	 xml:space="preserve">
<g enable-background="new    ">
	<path fill="#FFFFFF" d="M9.901,55.924c0.1,1.3,0.4,2.6,0,3.899c-0.2,0.801-0.3,0.801-1.4,0.7c0.2,0.2,0.2,0.4,0.4,0.5
		c1.1,0.5,1.4,1,1.4,2.101c-0.1,0.5-0.2,1-0.1,1.399c0.2,0.7-0.1,1.301-0.2,1.9c-0.3-0.1-0.6-0.1-0.9-0.2
		c-0.3-0.199-0.3,0.101-0.4,0.2c0,0.101,0.2,0.3,0.2,0.3c0.4,0.101,0.8,0.101,1-0.3c0.2,0.101,0.3,0.2,0.4,0.4
		c0.1,0.1,0,0.3,0.1,0.399c-0.6,0.2-1.1,0.4-1.7,0.7c0.1,0.3,0.2,0.7,0.2,0.7c1-0.3,1.1,0.601,1.3,1.101c0.3,0.8,0,1.8,0.6,2.5
		c-0.5,0.5-0.2,1.1-0.1,1.6c0,0.5,0.1,1,0.2,1.5c-0.7,1-0.7,1,0,1.301c-0.2,0.8-0.7,0.899-1.3,0.6c-0.1,0.4-0.2,0.601-0.3,1
		c1.4,0.4,1.2,1.9,2.1,2.8c-0.3,0.2-0.5,0.501-0.8,0.601c-1.3,0.3-2.2,1.4-3.6,1.6c-0.5,0-0.8,0.2-1.3,0c-0.5-0.199-1-0.3-1.5-0.399
		c-1.5-0.3-2.4-1.801-2.1-3.5c0.5-2.101,0.9-4.101,1.4-6.201c0-0.199,0.2-0.399,0.1-0.6c-0.7-1.9-0.2-4-1.2-5.9
		c-0.2-0.3-0.1-0.9,0-1.3c0.1-0.601,0.2-1.2,0-1.801c-0.5-1.5-0.3-3.1-0.3-4.6c0-2.4,0.5-4.7,0.1-7.101c-0.1-0.5-0.2-1,0.2-1.5
		c0.2-0.3,0-0.601-0.1-1c-0.1-0.301-0.1-0.601-0.1-0.9c0.2-0.6,0.2-1.1,0.1-1.8c-0.1-0.601-0.1-1.4,0.1-2.101
		c0.2-0.8,0.2-1.6,0.2-2.6c0.1,0,0.4-0.101,0.6-0.101c0.3,0.2,0.1,0.2-0.1,0.3c0,0-0.1-0.1-0.1-0.199c0.1,0,0.2,0,0.3-0.101
		c-0.8-0.399-1.1-1.1-0.9-2c0.4-1.2,0.1-2.6,0.5-3.9c-0.5-2,0.4-4.1,0-6.2c-0.2-1.2,0-2.5,0.1-3.7c0-0.5,0-0.9,0-1.4
		c0-0.699,0-1.399,0.1-2.1c0.2-1.101,0.2-2.2,0.1-3.4c-0.1-0.6-0.3-1.3,0-1.9c0.1-0.2,0.1-0.6,0-0.8c-0.5-1.7-0.6-3.4-0.2-5
		c0.1-0.2,0.1-0.3,0.1-0.4c-0.6-2.2,0.1-4.4,0-6.5c0.5-0.601,1-1.101,1.5-1.7c1.7-0.601,3.5-0.601,5.3-0.5c1.2,0,2.4,0,3.601-0.3
		c0.8-0.2,1.7-0.101,2.6,0c1.7,0.3,3.5,0.5,5.2,0.899c1.6,0.4,3.2,1.101,4.2,2.5c0.4,0.601,0.9,1,1.5,1.601c0,0.2,0,0.6,0.1,1
		c0,0.3,0,0.5,0.3,0.7c0.8,0.399,1.1,1.2,1.2,2c0.2,0.8,0.6,1.5,1,2.1c-0.2,0.301-0.3,0.601-0.5,0.9c0.5,0.4,1.2,0.5,0.8,1.4
		c-0.2,0.5,0.4,1,0.6,1.5c-0.1,0.5-0.9,0.8-0.4,1.5c0.2,0.3,0.2,0.6,0.2,1c0,0.3-0.1,0.6,0,0.9c0,0.3,0.4,0.8,0.3,0.899
		c-0.5,0.5-0.2,1.101-0.5,1.601c-0.7,1-0.6,1.8,0.1,2.7c0.1,0.1,0.1,0.3,0.1,0.3c-0.2,1.4-0.6,2.7-0.6,3.9c0,0.9-0.5,0.8-0.9,1.2
		c0.1,0.2,0.3,0.399,0.5,0.7c-0.3,0.399-0.8,0.8-0.8,1.6c0,0.5-0.8,1-0.7,1.7c0,0.2-0.2,0.5-0.4,0.6c-0.3,0.4-0.7,0.601-0.5,1.2
		c0,0.2-0.3,0.601-0.5,0.801c-0.9,0.899-1.8,1.899-2.5,3c-0.7,1-1.7,1.6-2.8,1.7c-1.3,0.1-2.4,0.399-3.4,0.899
		c-0.8,0.4-1.5,0.7-2.4,0.601c-0.4,0-0.8,0.1-1,0.5c-0.2,0.3-0.5,0.5-0.6,0.7c-1,0-1.8,0.1-2.5,0.1c-0.9,0.6-0.9,1.3-1,2
		c-0.1,1.4-0.1,1.4-0.8,2.5c0.2,0.2,0.3,0.5,0.6,0.7c0.5,0.4-0.1,0.9,0.1,1.2c0.3,0.4,0.3,0.5,0,1c-0.4,0.7-0.2,1.601,0,2.5
		c0.2,0.5-0.1,0.8-0.6,1c-0.1-0.7-0.3-1.1-1.1-1.1c0.2,0.7,0.7,0.7,1.1,1C9.701,55.724,9.901,55.823,9.901,55.924z M8.401,57.424
		c0,0,0.2,0.1,0.3,0.1c0-0.2,0.1-0.3,0-0.4c0-0.1-0.1-0.199-0.3-0.3C8.401,57.024,8.401,57.224,8.401,57.424z M8.901,53.323
		l-0.1-0.1l-0.1,0.199L8.901,53.323z M8.801,62.424c0,0,0,0.1-0.1,0.1c0.1,0.101,0.1,0.101,0.2,0.2c0-0.1,0-0.1,0.1-0.2
		C8.901,62.524,8.901,62.424,8.801,62.424z M9.101,73.324c0-0.2,0.1-0.399,0.1-0.6c0.1-0.101-0.1-0.2-0.2-0.2
		c-0.1,0.2-0.2,0.3-0.3,0.5c0,0.1,0.1,0.3,0.2,0.3H9.101z M9.201,34.023c-0.2,0.399-0.3,0.699-0.4,1
		C9.501,35.023,9.301,34.622,9.201,34.023z M8.801,44.423c0,0,0,0.1,0,0.2c0.1,0,0.1-0.101,0.1-0.2c0-0.101-0.1-0.2-0.1-0.3
		c0.1,0,0.1,0.1,0.2,0.1c0,0-0.1-0.1-0.2-0.2C8.801,44.223,8.801,44.323,8.801,44.423z M9.301,52.123c-0.1,0-0.2,0-0.3,0
		c0.1,0,0.1,0,0.2,0.101C9.201,52.123,9.301,52.123,9.301,52.123z M9.201,70.725h0.2l-0.1-0.2L9.201,70.725z M20.201,34.222
		c0.7-1.3,1.2-2.5,1.9-3.8c0.9-1.8,0.9-3.7,0.7-5.5c-0.3-2.501-0.6-5.101-1.8-7.4c-0.3-0.501-0.3-1.2-0.8-1.801
		c-0.4-0.399-0.5-1-0.9-1.6c-0.3-0.601-0.7-1.2-1.1-1.801c-0.4-0.5-0.8-0.899-1.3-1.399c-1-0.7-1.9-1.5-3-1.9
		c-0.7-0.2-1.3-0.3-2-0.3c-1.1,0.1-1.6,0.6-1.4,1.7c0.1,0.899,0.1,1.7-0.2,2.5c-0.1,0.399,0.1,0.9,0.2,1.4c0,0.1,0.1,0.3,0.1,0.5
		c-0.2,1.1-0.8,2.3-0.1,3.399c0.1,0.101-0.1,0.2-0.1,0.4c0,0.5-0.1,1,0,1.5c0,0.5,0.2,1.101,0.2,1.601c0.1,2-0.2,4.1-0.1,6.1
		c0,0.7,0.1,1.4,0,2c-0.3,0.9-0.2,1.601,0.1,2.4c0.1,0.3,0.2,0.601,0.1,0.7c-0.4,0.5-0.2,0.9-0.2,1.3c0.1,0.801,0.1,1.601,0.1,2.4
		c0.6,0.3,1.4,0.5,2.2,0.5c1.7-0.1,3.4-0.1,5-0.2C18.902,36.222,19.701,35.323,20.201,34.222z M28.302,12.521h-0.1l0.1,0.101V12.521
		z"/>
	<path fill="#FFFFFF" d="M33.301,45.423c0.1-1.2,0.2-2.3,0.3-3.5c0-0.2,0.1-0.5,0-0.601c-0.6-1,0.2-2,0-3.1c-0.1-1,0-2.101,0-3.101
		c0.1-1.1,0.3-2.1,0.4-3.2c0.2-1.2,0-2.4,0.4-3.5c-0.6-1.601,0.3-3.301-0.2-4.9c0.5-2.2,0.3-4.301,0.3-6.501c0.6-1,0-2.1,0.1-3.1
		c0.2-1.3,0.2-2.601,0.1-3.9c0-0.6-0.2-1.1-0.2-1.6c0-1,0-2.101,0.1-3.2c0-0.601,0.2-1.301,0.3-2.001c0.9-1,1.7-2.1,3-2.899
		c1.2-0.801,2.5-0.5,3.8-0.5c0.2,0,0.6,0.3,0.6,0.5c0.5,1.3,1.2,2.6,0.9,4.2c-0.3,1.1-0.3,2.3-0.2,3.5c0.1,0.6-0.1,1.1-0.5,1.6
		c0.2,0.301,0.5,0.7,0.7,1c-0.5,0.801-1,1.7-0.4,2.7c-0.4,0.301-0.7,0.501-1,0.801c0,0.1,0,0.3,0.1,0.3c0.6,0.5,0.8,1,0.6,1.7
		c-0.3,1.6,0,3.2-0.7,4.7c-0.1,0.3,0,0.8,0,1.1c-0.3,0.2-0.6,0.4-1.1,0.7c0.4,0.2,0.7,0.4,1.1,0.7c-0.2,0.7-0.5,1.4-0.1,2.101
		c0.1,0.3,0.1,0.6,0.1,0.8c-0.2,1-0.1,1.9,0,2.9c0.1,0.8-0.2,1.7,0,2.6c-0.5,0.8-0.3,1.5,0,2.301c0,0.199,0,0.3,0,0.399
		c-0.4,0.601-0.7,1.101-0.4,1.9c0.2,0.5-0.1,1.1,0.2,1.7c0.1,0.2,0,0.6-0.1,0.899c-0.5,0.801-0.1,1.7-0.5,2.501
		c0.8,0.8-0.1,1.6,0.1,2.5c0.1,0.8,0.6,1.7,0.3,2.6c-0.1,0.101,0,0.301,0,0.4c0.6,1.1,0.5,2.3,0.2,3.4c-0.2,0.899-0.1,1.8,0.6,2.5
		c0.4,0.4-0.1,0.5-0.4,0.6c-0.1,0.101-0.1,0.2-0.1,0.301c0,0.6,0.6,1.1,0.3,1.8c-0.2,0.6,0.6,1.1,0.2,1.9c-0.2,0.3,0.1,1,0.3,1.5
		c0.3,0.899,0.5,1.899,0.4,2.899c0,1.101,0.2,2.2,0.4,3.301c0.1,0.5,0.8,0.7,0.8,1.3c0,0.601,0.1,1.2,0.2,1.7c0,0.8,0.1,1.4,0.7,2
		c0.3,0.4,0.3,1,0.4,1.5c0.1,0.7,0.6,0.9,1.1,1.101c0.3-0.2,0.7-0.4,0.9-0.7c1.1-1.4,1.9-2.9,2.3-4.601c1.2-5,2.2-9.9,3-14.9
		c0.3-2.101,0.3-4.2,0.5-6.4c0.3-4.7,0.9-9.4,1.5-14.001c0.7-5.5,1.2-10.9,0.9-16.401c-0.2-2.2-0.2-4.5-0.9-6.7
		c-0.2-0.8-0.3-1.7-0.2-2.5c0.3-2.5,1.8-3.7,4.2-4.601c0.6-0.2,1.3-0.2,1.9-0.3c1.3-0.1,1.4-0.1,2.8,0.8c0.1,0.4,0,0.9,0.1,1.3
		c0.2,1.001,0.1,2.001-0.3,2.9c-0.3,0.7-0.3,1.4-0.1,2.101c0.3,1-0.2,2,0.5,2.8c-0.6,1,0.2,2.101-0.3,3.101c-0.1,0.1,0,0.3,0,0.399
		c0.6,0.301,0.4,1,0.2,1.2c-0.6,0.8,0,1.601-0.1,2.4c-0.1,0.7,0.3,1.5,0.6,2.4c-0.8,0.8-0.6,1.899-0.6,3c0.1,1.3,0,2.5-0.2,3.7
		c-0.1,1.3-0.1,2.5-0.4,3.7c-0.2,0.4,0.2,1,0,1.4c-0.4,0.7,0.5,1.5-0.2,2.2c0.1,0.699,0.3,1.399,0.5,2.1c0,0.2,0,0.3,0,0.4
		c-0.4,1-0.3,2.1-0.5,3.1c-0.2,1.5-0.3,2.9-0.4,4.4c-0.1,1.301,0,1.301-0.7,2.5c0.5,1.301,0.2,2.7,0,4.101
		c-0.4,2.9-0.8,5.7-1.3,8.601c-0.3,1.6-0.1,3.3-1,4.801c0.2,1-0.2,1.8-0.4,2.699c-0.2,0.801-0.5,1.601-0.7,2.301
		c-0.3,1.1-0.4,2.2-1,3.2c-0.1,0.1-0.1,0.399-0.2,0.5c-1.7,2.5-3.4,4.9-6.3,6.2c-1.2,0.5-2.5,0.7-3.6,0.3
		c-1.3-0.3-2.5-0.2-3.8-0.399c-0.4-0.101-1,0.3-1.7,0.5c-1.3-0.601-2.8-1.2-3.8-2.5c-0.4-0.4-0.8-0.9-0.9-1.4
		c-0.4-1-0.8-1.9-1.2-2.801c-0.2-0.6-0.6-1.3-0.7-2c-0.3-2.5-0.8-5-1.3-7.4c-0.2-0.7-0.2-1.399-0.1-2.2c0.2-1.1,0-2.3-0.1-3.5
		c-0.1-0.5-0.3-1.1-0.1-1.6c0.3-0.9,0-1.801-0.1-2.7c-0.3-1.5-0.5-3.001-0.1-4.501c0.1,0,0.3,0,0.4,0c-0.1,0-0.2,0-0.3,0l-0.1,0.101
		C33.2,48.323,33.301,46.923,33.301,45.423z M39.701,41.823c0.1-0.2,0.1-0.5,0.1-0.8c-0.1-0.6-0.1-0.6-0.9-0.5
		c-0.1,0.5,0.4,1-0.1,1.4c-0.5,0.5-0.3,0.8-0.1,1.3c0.2,0.3,0.2,0.7-0.1,1.1c-0.1,0.101-0.2,0.4-0.1,0.5
		c0.4,0.601,0.1,1.301,0.3,1.9c0,0.101,0.2,0.2,0.5,0.4C39.401,45.223,38.701,43.423,39.701,41.823z M39.401,61.323
		c0,0.101,0.2,0.101,0.4,0.2c-0.1-0.7-0.1-1.3-0.3-1.899c-0.1-0.601,0.3-1.4-0.6-1.9C39.001,58.924,39.201,60.124,39.401,61.323z
		 M39.301,56.024c-0.1,0-0.2,0.1-0.3,0.1c0,0.101,0,0.2,0.1,0.2c0.1-0.1,0.2-0.1,0.3-0.2L39.301,56.024z M39.501,62.124
		c0,0.1-0.1,0.1-0.2,0.2c0,0.1,0.1,0.1,0.1,0.199c0.1-0.1,0.1-0.199,0.2-0.3C39.601,62.224,39.601,62.124,39.501,62.124z
		 M40.101,66.124h-0.2l0.2,0.1V66.124z M54.502,69.525c0,0,0,0.1,0,0.2c0.1,0,0.1-0.101,0.2-0.101c0,0,0-0.1-0.1-0.2
		C54.602,69.525,54.502,69.525,54.502,69.525z M57.402,47.023h-0.1l0.1,0.2V47.023z M60.202,10.62c0-0.1,0.1-0.1,0.1-0.1
		c-0.1-0.1-0.1-0.2-0.2-0.3c0.1,0,0.2,0,0.3,0c-0.1,0-0.2,0-0.3-0.101C60.102,10.321,60.202,10.421,60.202,10.62z M62.302,25.822
		l-0.1,0.101c0,0,0.1,0.1,0.1,0.199l0.1-0.1C62.402,25.922,62.402,25.922,62.302,25.822z"/>
	<path fill="#FFFFFF" d="M74.5,54.823c0.1,1.601,0.5,3.2,0.1,4.7c-0.2,0.9-0.1,1.7,0.1,2.601c0.3,1,0.6,2.1,0.6,3.2
		c0,1.1,0.2,2.2,0.3,3.3c0.1,0.7,0.1,1.3,0.2,1.9c0.8,0.399,1.5,0.2,2.2,0.1c2.9-0.5,5.801-0.8,8.701-0.7c0.8,0,1.5-0.1,2.2-0.1
		c1.7,0,2.8,1.601,2.1,3.101c-0.1,0.399-0.2,0.8-0.5,1.1s-0.4,0.6-0.4,1c0,1-0.7,1.5-1.4,1.8c-2.2,1.001-4.4,1.7-6.9,1.501
		c-1.9-0.2-3.7-0.2-5.5,0.6c-1,0.4-2,0.3-3,0c-1.2-0.3-2.3-0.3-3.5-0.2c-1,0.101-1.4-0.1-1.7-0.899c-0.4-1.301-0.6-2.601-0.3-3.9
		c0.1-0.5,0.3-0.9,0.4-1.301c0.1-0.3,0.2-0.6,0.1-0.8c-0.5-1.7,0-3.5-0.2-5.3c-0.2-1-0.1-2.101-0.2-3.101c0-1.1-0.4-2.101,0-3.2
		c-0.5-0.6,0.3-1.2-0.1-1.8c-0.3-0.601-0.3-1.301-0.4-1.9c-0.2-0.7,0.1-1,0.7-1.2c0.1-0.5-0.5-0.2-0.6-0.5s-0.2-0.5-0.2-0.8
		c-0.1-0.5,0-1.101,0-1.601c-0.1-0.7,0.4-0.899,1-1.1c-0.2-0.2-0.6-0.4-0.6-0.7c-0.2-1.1-0.5-2.2-0.2-3.4c0-0.2,0.1-0.5,0-0.8
		c0-2.101-0.1-4.301-0.3-6.5c0-0.5,0-1.001,0-1.601c0.2-1.1,0.4-2.3,0.1-3.5c-0.1-0.3,0-0.601,0-1c0.1-0.9,0.2-1.9,0.2-2.9
		c0.1-0.9,0.1-1.8,0.1-2.7c0.1-0.7,0.2-1.3,0.3-2c0.2-0.5-0.4-1.101,0.2-1.7c-0.3-1.101,0.1-2.2,0.1-3.3c0-1.101,0.4-2.2,0.1-3.301
		c0.7-1.6-0.1-3.4,0.6-5c-0.1-1.101,0-2.101,0-3.101c0-1.6,0.5-3.1,0.1-4.6c-0.1-0.4,0.2-1.001,0.4-1.501c0.9-0.6,1.9-0.5,2.8-0.1
		c0.8,0.4,1.6,0.2,2.4,0.2c0.8,0,1.1,0.3,1.3,1c0.1,0.4,0.3,0.9,0.4,1.3c0.4,2.801,0.6,5.601,0.5,8.501c-0.1,1.3-0.4,2.6-0.4,3.9
		c0.1,1.399-0.2,2.7-0.3,4.1c-0.1,1.301-0.2,2.601-0.2,4.001c0,0.399,0,0.899,0,1.3c0,0.6-0.1,1.2-0.2,1.7
		c-0.3,1.399-0.4,2.899-0.5,4.3c-0.1,1.2,0,2.4-0.1,3.601c-0.2,1.8-0.6,3.6-0.5,5.4c0.1,1.399,0,2.9,0,4.3
		c0.1,0.601,0.3,1.2,0.3,1.8c-0.2,1.501-0.5,3.101-0.9,4.9C74.1,54.224,74.5,54.524,74.5,54.823z"/>
	<path fill="#FFFFFF" d="M100.899,54.823c0.1,1.601,0.5,3.2,0.1,4.7c-0.2,0.9-0.1,1.7,0.1,2.601c0.3,1,0.6,2.1,0.6,3.2
		c0,1.1,0.2,2.2,0.3,3.3c0.1,0.7,0.1,1.3,0.2,1.9c0.8,0.399,1.5,0.2,2.2,0.1c2.9-0.5,5.8-0.8,8.701-0.7c0.8,0,1.5-0.1,2.2-0.1
		c1.7,0,2.8,1.601,2.1,3.101c-0.1,0.399-0.2,0.8-0.5,1.1c-0.3,0.3-0.4,0.6-0.4,1c0,1-0.7,1.5-1.4,1.8c-2.2,1.001-4.4,1.7-6.9,1.501
		c-1.9-0.2-3.7-0.2-5.5,0.6c-1,0.4-2,0.3-3,0c-1.2-0.3-2.3-0.3-3.5-0.2c-1,0.101-1.4-0.1-1.7-0.899c-0.4-1.301-0.6-2.601-0.3-3.9
		c0.1-0.5,0.3-0.9,0.4-1.301c0.1-0.3,0.2-0.6,0.1-0.8c-0.5-1.7,0-3.5-0.2-5.3c-0.2-1-0.1-2.101-0.2-3.101c0-1.1-0.4-2.101,0-3.2
		c-0.5-0.6,0.3-1.2-0.1-1.8c-0.3-0.601-0.3-1.301-0.4-1.9c-0.2-0.7,0.1-1,0.7-1.2c0.1-0.5-0.5-0.2-0.6-0.5s-0.2-0.5-0.2-0.8
		c-0.1-0.5,0-1.101,0-1.601c-0.1-0.7,0.4-0.899,1-1.1c-0.2-0.2-0.6-0.4-0.6-0.7c-0.2-1.1-0.5-2.2-0.2-3.4c0-0.2,0.1-0.5,0-0.8
		c0-2.101-0.1-4.301-0.3-6.5c0-0.5,0-1.001,0-1.601c0.2-1.1,0.4-2.3,0.1-3.5c-0.1-0.3,0-0.601,0-1c0.1-0.9,0.2-1.9,0.2-2.9
		c0.1-0.9,0.1-1.8,0.1-2.7c0.1-0.7,0.2-1.3,0.3-2c0.2-0.5-0.4-1.101,0.2-1.7c-0.3-1.101,0.1-2.2,0.1-3.3c0-1.101,0.4-2.2,0.1-3.301
		c0.7-1.6-0.1-3.4,0.6-5c-0.1-1.101,0-2.101,0-3.101c0-1.6,0.5-3.1,0.1-4.6c-0.1-0.4,0.2-1.001,0.4-1.501c0.9-0.6,1.9-0.5,2.8-0.1
		c0.8,0.4,1.6,0.2,2.4,0.2c0.8,0,1.1,0.3,1.3,1c0.1,0.4,0.3,0.9,0.4,1.3c0.4,2.801,0.6,5.601,0.5,8.501c-0.1,1.3-0.4,2.6-0.4,3.9
		c0.1,1.399-0.2,2.7-0.3,4.1c-0.1,1.301-0.2,2.601-0.2,4.001c0,0.399,0,0.899,0,1.3c0,0.6-0.1,1.2-0.2,1.7
		c-0.3,1.399-0.4,2.899-0.5,4.3c-0.1,1.2,0,2.4-0.1,3.601c-0.2,1.8-0.6,3.6-0.5,5.4c0.1,1.399,0,2.9,0,4.3
		c0.1,0.601,0.3,1.2,0.3,1.8c-0.2,1.501-0.5,3.101-0.9,4.9C100.499,54.224,100.899,54.524,100.899,54.823z"/>
	<path fill="#FFFFFF" d="M156.401,67.025c-0.2,0.8-0.1,0.899,0.8,0.8c0.7,0.9,1.3,1.8,2,2.7c0.601,0.9,0.7,2.1,0.8,3.2
		c-0.4,0.3-0.699,0.7-1.199,1.1c0.699,0.5,1.199,1,1.8,1.4c0.399,0.4,0.5,0.8,0.2,1.3c-0.2,0.4-0.601,0.801-0.9,1.2
		c-0.4,0.4-0.9,0.8-1.5,1.4c-1.5,0.3-3.2-0.3-4.9-0.5c-0.6-0.8-1.2-1.7-1.5-2.7c-0.4-1.2-1-2.301-1.6-3.5
		c-0.201-0.5-0.5-1-0.701-1.601c-0.199-0.5-0.8-0.7-1.3-0.3c-0.3,0.2-0.6,0.4-0.8,0.6c-1.1,1.301-2.7,2.101-4.1,3.101
		c-1.2,0.9-2.601,1.6-4.3,1.9c-1.5,0.199-3,0.7-4.601,0.8c-1.3,0.2-2.5,0-3.5-0.5c-1.8-0.7-3.7-1.3-5.101-2.601
		c-0.4-0.399-1.1-0.5-1.5-0.899c-1.6-1.2-2.7-2.7-3.1-4.7c-0.4-1.4-1.2-2.801-1.4-4.301c0-0.8-0.3-1.6-0.3-2.4c-0.2-2.5-0.3-5,0-7.5
		c0.2-1,0.1-1,0.9-1.8c0.2-0.4-0.7-0.9,0-1.4c0.1-0.101,0.1-0.5,0.1-0.7c-0.2-1.2-0.1-2.2,0.8-3.101c0.2-0.1,0.3-0.3,0.2-0.5
		c-0.2-0.899,0.4-1.699,0.7-2.399c0.1-0.2,0.2-0.4,0.3-0.7c0.3-1.7,0.9-3.4,1.9-4.9c0.2-0.3,0.3-0.601,0.3-1
		c0-0.4,0.4-0.9,0.8-1.101c0.6-0.3,0.6-0.8,0.8-1.399c0.3-1.4,1.1-2.5,2.101-3.501c0.2-0.199,0.6-0.3,0.8-0.5
		c0.3-0.399,0.6-0.8,1-1.199c-0.3-1.101-0.4-2.301-0.7-3.4c-1.1-3.301-1.9-6.7-2.6-10.101c-0.3-1.7-0.7-3.5-1-5.2
		c-0.2-1.301,0.1-2.501,1.2-3.4c0.6-0.5,1-1.2,1.8-1.601c0.3-0.2,0.6-0.7,0.8-1.1c1.3-2.101,3.4-2.7,5.7-2.5c0.6,0,1.1,0.1,1.7,0
		c1-0.4,2.1-0.5,2.9,0.5c0.2,0.199,0.5,0.3,0.8,0.3c0.7-0.101,1.3,0.4,1.9,0.4c1.2,0,2,0.899,3,1.399c0.5,0.3,0.6,0.9,0.7,1.4
		c0,0.7,0.2,1.3,0.6,1.8c0.3,0.4,0.4,1,0.5,1.5c0.101,1.4,0.5,2.801,0.101,4.2c0.2,2.2-0.4,4.301-0.8,6.4
		c-0.1,0.601,0.1,1.301-0.2,1.7c-0.4,0.601-0.8,1.101-0.4,1.9c0,0.1-0.1,0.3-0.2,0.5c-0.8,1.5-1.4,3.2-2.6,4.4
		c-1,1.1-1.2,2.3-1.4,3.601c0,0.399,0.1,0.8-0.1,1.199c-0.1,0.101,0.1,0.4,0.2,0.4c1,0.4,1.2,1.4,1.5,2.2
		c0.8,2.101,1.8,4.101,2.7,6.101c0.8,1.7,1.6,3.4,2.4,5c0.2,0.3,0.2,0.7,0.2,1c0.1,0.5,0.1,0.9,0.6,1.2
		c0.201,0.1,0.201,0.4,0.301,0.7c0.3,1.3,0.5,1.6,1.5,3c0.5-0.1,0.5-0.5,0.6-0.9c0.1-2,0.2-4,0.4-6c0.199-2.7,0.5-5.4,0.8-8.101
		c0-0.2,0.101-0.4,0.101-0.6c-0.301-1.7,0.6-2.7,1.8-3.601c1.101-0.9,2.2-1.7,3.7-1.9c1.1-0.199,1.4-0.199,2.1,0.9
		c0,0.2,0.101,0.4,0.2,0.7c-0.3,0.8-0.6,1.6-1.101,2.4c-0.299,0.6-0.399,1.199-0.199,1.899c0.4,1.5,0.4,3.101-0.2,4.601
		c-0.3,0.6,0,1.3-0.3,1.9c-0.4,0.7-0.4,1.399-0.6,2.1c-0.101,0.5-0.201,0.9-0.301,1.4c-0.3,4.101-1.3,8-2.7,11.801
		c-0.399,0.899-0.6,1.9-0.7,2.9c0,0.399,0.101,0.8,0.4,1.1c0.4,0.5,0.7,1.101,0.9,1.7C156.401,66.724,156.401,66.824,156.401,67.025
		z M124.698,58.823c0.1,0.101,0.3,0.2,0.4,0.301c0-0.101,0.2-0.2,0.1-0.301c0-0.1-0.2-0.199-0.3-0.3
		C124.799,58.724,124.698,58.823,124.698,58.823z M133.599,42.823c-0.1,0.801-0.5,1.301-0.8,2c-0.1,0.5-0.4,0.9-0.9,1.2
		c-0.3,0.2-0.6,0.7-0.5,1c0.1,1.101-0.4,2-0.9,2.9c-0.2,0.5-0.6,0.9-0.5,1.601c0.1,0.6-0.6,1-0.4,1.7c0.2,0.8-0.9,0.899-1,1.5
		c0.2,0.3,0.5,0.6,0.5,0.6c-0.5,0.601,0,1.5-0.4,1.9c-0.7,0.6,0.3,1.3-0.2,1.8c-0.1,1.7-0.3,3.4-0.4,5.101c0,0.1-0.1,0.2-0.2,0.3
		c-0.4,0.1-0.9,0.2-1.3,0.3c-0.2,0.5,0.1,0.7,0.3,0.9c0.2,0.2,0.2,0.6,0.3,0.8c0.4-0.1,0.8-0.2,1.1-0.399c0.3,0.399,0.6,0.699,0.8,1
		c0.3,0.6,0.6,1.1,0.8,1.6c0.3,0.8,1.2,0.4,1.6,1.101c1.4-0.5,2.7-0.5,4,0.199c1.1,0.5,2.4,0.5,3.5,0.301c2.5-0.5,4.5-1.9,6.2-3.801
		c1.3-1.3,1.3-2.1,0.5-3.7c-0.1-0.1-0.2-0.3-0.2-0.399c-0.5-0.801-1.1-1.7-1.4-2.601c-0.3-1.2-0.8-2.3-1.3-3.4
		c-0.5-1.1-1-2.3-1.5-3.5c-1.3-3-2.7-6-4.101-9.001c-0.4-1-1-2-1.7-3.1C134.499,41.323,134.499,42.523,133.599,42.823z
		 M128.198,68.124h0.1v-0.1L128.198,68.124z M129.099,51.123c-0.1-0.1-0.3-0.1-0.5-0.1c0.1,0.1,0.2,0.3,0.3,0.399
		c0,0.101,0.2,0,0.3,0C129.198,51.323,129.198,51.123,129.099,51.123z M130.499,40.223c-0.6-0.101,0.1-0.8-0.3-1
		c-0.8,0.1-1,0.7-1.3,1.2c-0.1,0.199,0,0.6-0.1,1.1c0.6-0.3,0.9-0.5,1.2-0.6c0.5-0.101,0.9,0,1.4-0.101c0.1-0.1,0.2-0.399,0.4-0.6
		C131.299,40.223,130.899,40.223,130.499,40.223z M131.999,38.922c0.1-0.1,0-0.199-0.1-0.3c-0.1,0.2-0.3,0.3-0.5,0.4
		c0.1,0.1,0.2,0.2,0.4,0.3C131.799,39.223,131.999,39.122,131.999,38.922z M131.599,36.723c0.1,0,0.1,0.1,0.2,0.1l0.1-0.1
		C131.799,36.723,131.699,36.723,131.599,36.723z M132.699,36.922l-0.1,0.101c0,0,0,0.1,0.1,0.2c0-0.101,0-0.101,0.1-0.2
		C132.699,37.023,132.699,37.023,132.699,36.922z M135.099,11.921c-0.5,0.1-0.6,0.5-0.6,0.899c0.2,1.101,0.2,2.301,0.5,3.4
		c0.6,1.9,1,3.9,2,5.801c0.3,0.5,0.5,1,0.8,1.6c0.5,1.2,1,1.301,1.9,0.2c0.1-0.2,0.3-0.4,0.4-0.7c0.5-0.899,1-1.899,1.6-2.7
		c1.3-1.8,1.3-5.2-0.8-7.601c-0.7-0.8-1.4-1.199-2.5-1.199c-1.3,0-1.3,0-2.6,0.8C135.599,12.221,135.299,11.921,135.099,11.921z
		 M137.599,33.122c-0.2-0.1-0.3-0.1-0.4-0.1c0-0.101-0.1,0-0.1,0.1c0.1,0,0.2,0.1,0.3,0.1S137.499,33.122,137.599,33.122z
		 M138.799,36.023l0.1,0.1c0,0,0,0.1-0.1,0.1c0.1,0.301,0.2,0.7,0.3,1.001c-0.4-0.101-0.8-0.5-1.1,0.1c0,0-0.2,0.1-0.3,0.1
		c0.1,0,0.2,0.101,0.3,0.101c0-0.101,0-0.2,0-0.3c0.3,0,0.6,0,1,0c-0.1,0.199-0.1,0.399-0.1,0.5c-0.1,0.1-0.1,0.199-0.1,0.3
		c0-0.101,0-0.2,0-0.3c0.1-0.101,0.1-0.301,0.1-0.4v-0.2c0,0,0.2,0,0.1,0c0-0.3,0.4-0.7-0.1-0.8
		C138.799,36.222,138.799,36.122,138.799,36.023z M156.401,66.624"/>
	<path fill="#FFFFFF" d="M172.097,55.924c0.101,1.3,0.4,2.6,0,3.899c-0.2,0.801-0.3,0.801-1.399,0.7c0.199,0.2,0.199,0.4,0.399,0.5
		c1.101,0.5,1.4,1,1.4,2.101c-0.101,0.5-0.2,1-0.101,1.399c0.2,0.7-0.1,1.301-0.199,1.9c-0.301-0.1-0.601-0.1-0.9-0.2
		c-0.3-0.199-0.3,0.101-0.4,0.2c0,0.101,0.2,0.3,0.2,0.3c0.4,0.101,0.8,0.101,1-0.3c0.2,0.101,0.3,0.2,0.4,0.4
		c0.1,0.1,0,0.3,0.1,0.399c-0.6,0.2-1.1,0.4-1.7,0.7c0.101,0.3,0.2,0.7,0.2,0.7c1-0.3,1.101,0.601,1.3,1.101
		c0.301,0.8,0,1.8,0.601,2.5c-0.5,0.5-0.2,1.1-0.101,1.6c0,0.5,0.101,1,0.201,1.5c-0.701,1-0.701,1,0,1.301
		c-0.201,0.8-0.701,0.899-1.301,0.6c-0.1,0.4-0.2,0.601-0.3,1c1.399,0.4,1.2,1.9,2.101,2.8c-0.301,0.2-0.5,0.501-0.801,0.601
		c-1.3,0.3-2.2,1.4-3.6,1.6c-0.5,0-0.801,0.2-1.301,0c-0.5-0.199-1-0.3-1.5-0.399c-1.5-0.3-2.4-1.801-2.1-3.5
		c0.5-2.101,0.899-4.101,1.399-6.201c0-0.199,0.2-0.399,0.101-0.6c-0.7-1.9-0.2-4-1.2-5.9c-0.2-0.3-0.101-0.9,0-1.3
		c0.1-0.601,0.2-1.2,0-1.801c-0.501-1.5-0.3-3.1-0.3-4.6c0-2.4,0.5-4.7,0.1-7.101c-0.1-0.5-0.2-1,0.2-1.5c0.2-0.3,0-0.601-0.101-1
		c-0.1-0.301-0.1-0.601-0.1-0.9c0.2-0.6,0.2-1.1,0.1-1.8c-0.1-0.601-0.1-1.4,0.101-2.101c0.2-0.8,0.2-1.6,0.2-2.6
		c0.1,0,0.399-0.101,0.6-0.101c0.3,0.2,0.1,0.2-0.1,0.3c0,0-0.101-0.1-0.101-0.199c0.101,0,0.2,0,0.3-0.101
		c-0.8-0.399-1.1-1.1-0.899-2c0.399-1.2,0.1-2.6,0.5-3.9c-0.5-2,0.399-4.1,0-6.2c-0.2-1.2,0-2.5,0.1-3.7c0-0.5,0-0.9,0-1.4
		c0-0.699,0-1.399,0.101-2.1c0.199-1.101,0.199-2.2,0.1-3.4c-0.1-0.6-0.3-1.3,0-1.9c0.1-0.2,0.1-0.6,0-0.8c-0.5-1.7-0.6-3.4-0.2-5
		c0.101-0.2,0.101-0.3,0.101-0.4c-0.601-2.2,0.1-4.4,0-6.5c0.5-0.601,1-1.101,1.5-1.7c1.699-0.601,3.5-0.601,5.3-0.5
		c1.2,0,2.4,0,3.601-0.3c0.8-0.2,1.7-0.101,2.6,0c1.701,0.3,3.5,0.5,5.201,0.899c1.6,0.4,3.199,1.101,4.199,2.5
		c0.4,0.601,0.9,1,1.5,1.601c0,0.2,0,0.6,0.101,1c0,0.3,0,0.5,0.3,0.7c0.801,0.399,1.101,1.2,1.2,2c0.2,0.8,0.601,1.5,1,2.1
		c-0.2,0.301-0.3,0.601-0.5,0.9c0.5,0.4,1.2,0.5,0.8,1.4c-0.199,0.5,0.4,1,0.601,1.5c-0.101,0.5-0.9,0.8-0.399,1.5
		c0.199,0.3,0.199,0.6,0.199,1c0,0.3-0.1,0.6,0,0.9c0,0.3,0.4,0.8,0.301,0.899c-0.5,0.5-0.201,1.101-0.5,1.601
		c-0.701,1-0.601,1.8,0.1,2.7c0.1,0.1,0.1,0.3,0.1,0.3c-0.199,1.4-0.6,2.7-0.6,3.9c0,0.9-0.5,0.8-0.9,1.2c0.1,0.2,0.3,0.399,0.5,0.7
		c-0.3,0.399-0.8,0.8-0.8,1.6c0,0.5-0.8,1-0.7,1.7c0,0.2-0.2,0.5-0.4,0.6c-0.3,0.4-0.699,0.601-0.5,1.2c0,0.2-0.3,0.601-0.5,0.801
		c-0.9,0.899-1.8,1.899-2.5,3c-0.7,1-1.7,1.6-2.801,1.7c-1.299,0.1-2.399,0.399-3.399,0.899c-0.8,0.4-1.5,0.7-2.4,0.601
		c-0.399,0-0.8,0.1-1,0.5c-0.2,0.3-0.5,0.5-0.601,0.7c-1,0-1.799,0.1-2.5,0.1c-0.899,0.6-0.899,1.3-1,2c-0.1,1.4-0.1,1.4-0.8,2.5
		c0.2,0.2,0.3,0.5,0.601,0.7c0.5,0.4-0.101,0.9,0.1,1.2c0.3,0.4,0.3,0.5,0,1c-0.4,0.7-0.2,1.601,0,2.5c0.2,0.5-0.1,0.8-0.6,1
		c-0.101-0.7-0.301-1.1-1.101-1.1c0.2,0.7,0.7,0.7,1.101,1C171.897,55.724,172.097,55.823,172.097,55.924z M170.597,57.424
		c0,0,0.2,0.1,0.3,0.1c0-0.2,0.101-0.3,0-0.4c0-0.1-0.1-0.199-0.3-0.3C170.597,57.024,170.597,57.224,170.597,57.424z
		 M171.097,53.323l-0.1-0.1l-0.101,0.199L171.097,53.323z M170.997,62.424c0,0,0,0.1-0.101,0.1c0.101,0.101,0.101,0.101,0.2,0.2
		c0-0.1,0-0.1,0.101-0.2C171.097,62.524,171.097,62.424,170.997,62.424z M171.297,73.324c0-0.2,0.1-0.399,0.1-0.6
		c0.101-0.101-0.1-0.2-0.199-0.2c-0.101,0.2-0.2,0.3-0.301,0.5c0,0.1,0.101,0.3,0.2,0.3H171.297z M171.397,34.023
		c-0.199,0.399-0.3,0.699-0.399,1C171.698,35.023,171.497,34.622,171.397,34.023z M170.997,44.423c0,0,0,0.1,0,0.2
		c0.1,0,0.1-0.101,0.1-0.2c0-0.101-0.1-0.2-0.1-0.3c0.1,0,0.1,0.1,0.2,0.1c0,0-0.101-0.1-0.2-0.2
		C170.997,44.223,170.997,44.323,170.997,44.423z M171.497,52.123c-0.101,0-0.2,0-0.3,0c0.1,0,0.1,0,0.199,0.101
		C171.397,52.123,171.497,52.123,171.497,52.123z M171.397,70.725h0.2l-0.1-0.2L171.397,70.725z M182.398,34.222
		c0.7-1.3,1.2-2.5,1.9-3.8c0.899-1.8,0.899-3.7,0.7-5.5c-0.301-2.501-0.601-5.101-1.801-7.4c-0.3-0.501-0.3-1.2-0.8-1.801
		c-0.399-0.399-0.5-1-0.899-1.6c-0.301-0.601-0.701-1.2-1.101-1.801c-0.399-0.5-0.8-0.899-1.3-1.399c-1-0.7-1.9-1.5-3-1.9
		c-0.701-0.2-1.301-0.3-2-0.3c-1.101,0.1-1.601,0.6-1.4,1.7c0.1,0.899,0.1,1.7-0.2,2.5c-0.101,0.399,0.1,0.9,0.2,1.4
		c0,0.1,0.1,0.3,0.1,0.5c-0.2,1.1-0.8,2.3-0.1,3.399c0.1,0.101-0.101,0.2-0.101,0.4c0,0.5-0.1,1,0,1.5c0,0.5,0.2,1.101,0.2,1.601
		c0.1,2-0.2,4.1-0.1,6.1c0,0.7,0.1,1.4,0,2c-0.301,0.9-0.2,1.601,0.1,2.4c0.1,0.3,0.2,0.601,0.1,0.7c-0.399,0.5-0.199,0.9-0.199,1.3
		c0.1,0.801,0.1,1.601,0.1,2.4c0.6,0.3,1.4,0.5,2.2,0.5c1.7-0.1,3.4-0.1,5.001-0.2C181.098,36.222,181.898,35.323,182.398,34.222z
		 M190.498,12.521h-0.1l0.1,0.101V12.521z"/>
	<path fill="#FFFFFF" d="M195.496,45.423c0.101-1.2,0.2-2.3,0.301-3.5c0-0.2,0.1-0.5,0-0.601c-0.601-1,0.199-2,0-3.1
		c-0.101-1,0-2.101,0-3.101c0.1-1.1,0.3-2.1,0.399-3.2c0.2-1.2,0-2.4,0.4-3.5c-0.601-1.601,0.3-3.301-0.2-4.9
		c0.5-2.2,0.3-4.301,0.3-6.501c0.601-1,0-2.1,0.101-3.1c0.199-1.3,0.199-2.601,0.1-3.9c0-0.6-0.2-1.1-0.2-1.6c0-1,0-2.101,0.101-3.2
		c0-0.601,0.199-1.301,0.3-2.001c0.899-1,1.7-2.1,3-2.899c1.2-0.801,2.5-0.5,3.8-0.5c0.201,0,0.601,0.3,0.601,0.5
		c0.5,1.3,1.2,2.6,0.899,4.2c-0.299,1.1-0.299,2.3-0.199,3.5c0.1,0.6-0.1,1.1-0.5,1.6c0.199,0.301,0.5,0.7,0.699,1
		c-0.5,0.801-1,1.7-0.399,2.7c-0.399,0.301-0.7,0.501-1,0.801c0,0.1,0,0.3,0.101,0.3c0.6,0.5,0.799,1,0.6,1.7
		c-0.301,1.6,0,3.2-0.7,4.7c-0.101,0.3,0,0.8,0,1.1c-0.3,0.2-0.601,0.4-1.101,0.7c0.4,0.2,0.7,0.4,1.101,0.7
		c-0.2,0.7-0.5,1.4-0.101,2.101c0.101,0.3,0.101,0.6,0.101,0.8c-0.2,1-0.101,1.9,0,2.9c0.101,0.8-0.2,1.7,0,2.6
		c-0.5,0.8-0.3,1.5,0,2.301c0,0.199,0,0.3,0,0.399c-0.4,0.601-0.7,1.101-0.4,1.9c0.2,0.5-0.1,1.1,0.2,1.7c0.1,0.2,0,0.6-0.1,0.899
		c-0.5,0.801-0.101,1.7-0.5,2.501c0.8,0.8-0.101,1.6,0.1,2.5c0.1,0.8,0.6,1.7,0.3,2.6c-0.1,0.101,0,0.301,0,0.4
		c0.601,1.1,0.501,2.3,0.2,3.4c-0.2,0.899-0.1,1.8,0.6,2.5c0.4,0.4-0.1,0.5-0.399,0.6c-0.101,0.101-0.101,0.2-0.101,0.301
		c0,0.6,0.601,1.1,0.301,1.8c-0.2,0.6,0.6,1.1,0.199,1.9c-0.199,0.3,0.101,1,0.301,1.5c0.3,0.899,0.5,1.899,0.4,2.899
		c0,1.101,0.199,2.2,0.399,3.301c0.101,0.5,0.8,0.7,0.8,1.3c0,0.601,0.1,1.2,0.2,1.7c0,0.8,0.101,1.4,0.7,2c0.3,0.4,0.3,1,0.4,1.5
		c0.1,0.7,0.6,0.9,1.1,1.101c0.3-0.2,0.7-0.4,0.9-0.7c1.1-1.4,1.9-2.9,2.3-4.601c1.2-5,2.2-9.9,3-14.9c0.3-2.101,0.3-4.2,0.5-6.4
		c0.3-4.7,0.9-9.4,1.501-14.001c0.699-5.5,1.199-10.9,0.899-16.401c-0.2-2.2-0.2-4.5-0.899-6.7c-0.201-0.8-0.301-1.7-0.201-2.5
		c0.301-2.5,1.801-3.7,4.201-4.601c0.6-0.2,1.3-0.2,1.899-0.3c1.3-0.1,1.4-0.1,2.8,0.8c0.101,0.4,0,0.9,0.101,1.3
		c0.2,1.001,0.101,2.001-0.3,2.9c-0.301,0.7-0.301,1.4-0.1,2.101c0.299,1-0.201,2,0.5,2.8c-0.601,1,0.199,2.101-0.301,3.101
		c-0.1,0.1,0,0.3,0,0.399c0.6,0.301,0.4,1,0.2,1.2c-0.601,0.8,0,1.601-0.101,2.4c-0.1,0.7,0.301,1.5,0.601,2.4
		c-0.8,0.8-0.601,1.899-0.601,3c0.101,1.3,0,2.5-0.199,3.7c-0.1,1.3-0.1,2.5-0.4,3.7c-0.199,0.4,0.2,1,0,1.4
		c-0.4,0.7,0.5,1.5-0.199,2.2c0.1,0.699,0.299,1.399,0.5,2.1c0,0.2,0,0.3,0,0.4c-0.4,1-0.301,2.1-0.5,3.1
		c-0.201,1.5-0.301,2.9-0.4,4.4c-0.1,1.301,0,1.301-0.7,2.5c0.5,1.301,0.2,2.7,0,4.101c-0.399,2.9-0.8,5.7-1.3,8.601
		c-0.301,1.6-0.101,3.3-1,4.801c0.199,1-0.2,1.8-0.4,2.699c-0.2,0.801-0.5,1.601-0.7,2.301c-0.3,1.1-0.399,2.2-1,3.2
		c-0.101,0.1-0.101,0.399-0.2,0.5c-1.699,2.5-3.4,4.9-6.301,6.2c-1.199,0.5-2.5,0.7-3.6,0.3c-1.301-0.3-2.5-0.2-3.801-0.399
		c-0.399-0.101-1,0.3-1.699,0.5c-1.301-0.601-2.801-1.2-3.801-2.5c-0.4-0.4-0.8-0.9-0.9-1.4c-0.399-1-0.799-1.9-1.199-2.801
		c-0.2-0.6-0.601-1.3-0.7-2c-0.3-2.5-0.8-5-1.3-7.4c-0.2-0.7-0.2-1.399-0.101-2.2c0.2-1.1,0-2.3-0.1-3.5
		c-0.101-0.5-0.3-1.1-0.101-1.6c0.301-0.9,0-1.801-0.1-2.7c-0.301-1.5-0.5-3.001-0.1-4.501c0.1,0,0.3,0,0.399,0c-0.1,0-0.2,0-0.3,0
		l-0.1,0.101C195.397,48.323,195.496,46.923,195.496,45.423z M201.897,41.823c0.101-0.2,0.101-0.5,0.101-0.8
		c-0.101-0.6-0.101-0.6-0.9-0.5c-0.101,0.5,0.399,1-0.101,1.4c-0.5,0.5-0.299,0.8-0.1,1.3c0.2,0.3,0.2,0.7-0.1,1.1
		c-0.1,0.101-0.2,0.4-0.1,0.5c0.399,0.601,0.1,1.301,0.299,1.9c0,0.101,0.201,0.2,0.5,0.4
		C201.597,45.223,200.897,43.423,201.897,41.823z M201.597,61.323c0,0.101,0.2,0.101,0.4,0.2c-0.101-0.7-0.101-1.3-0.3-1.899
		c-0.101-0.601,0.3-1.4-0.601-1.9C201.198,58.924,201.397,60.124,201.597,61.323z M201.496,56.024c-0.1,0-0.199,0.1-0.299,0.1
		c0,0.101,0,0.2,0.1,0.2c0.1-0.1,0.199-0.1,0.3-0.2L201.496,56.024z M201.698,62.124c0,0.1-0.101,0.1-0.201,0.2
		c0,0.1,0.101,0.1,0.101,0.199c0.101-0.1,0.101-0.199,0.2-0.3C201.797,62.224,201.797,62.124,201.698,62.124z M202.297,66.124h-0.2
		l0.2,0.1V66.124z M216.698,69.525c0,0,0,0.1,0,0.2c0.101,0,0.101-0.101,0.201-0.101c0,0,0-0.1-0.101-0.2
		C216.798,69.525,216.698,69.525,216.698,69.525z M219.598,47.023h-0.1l0.1,0.2V47.023z M222.399,10.62c0-0.1,0.1-0.1,0.1-0.1
		c-0.1-0.1-0.1-0.2-0.2-0.3c0.101,0,0.2,0,0.3,0c-0.1,0-0.199,0-0.3-0.101C222.298,10.321,222.399,10.421,222.399,10.62z
		 M224.498,25.822l-0.1,0.101c0,0,0.1,0.1,0.1,0.199l0.1-0.1C224.598,25.922,224.598,25.922,224.498,25.822z"/>
	<path fill="#FFFFFF" d="M242.597,80.225c-0.8-0.2-1.7-0.399-2.4-0.899c-0.899-0.5-2-0.7-2.7-1.5c-0.199-0.101-0.4-0.101-0.6-0.101
		c-0.801,0.3-0.9-0.5-1.2-0.9c-0.101,0.101-0.2,0.101-0.399,0.2c-0.101-0.1-0.201-0.1-0.301-0.2c-1.3-1.5-2.301-3.2-3.1-5.1
		c-1-2.601-1.9-5.2-2.301-8.001c0-0.399-0.1-0.8-0.1-1.2c0.1-1.1,0-2.1-0.2-3.2c-0.5-2.2,0.2-3.9,2-5.1
		c0.899-0.601,1.8-1.301,2.9-1.2c0.3,0.1,0.6,0,0.8-0.101c1-0.399,1.801-0.199,2.7,0.5c-0.101,0.2,0,0.5-0.101,0.7
		c-0.5,1.2-0.6,2.4-0.399,3.7c0.2,1.601,0.101,3.301,0.8,4.9c0.301,0.8,0.301,1.8,0.5,2.601c0.301,1.2,0.6,2.3,1.101,3.4
		c0.899,1.899,2.101,3.5,4.3,3.899c1,0.2,1.301,0,1.9-0.899c1.2-1.9,1.4-4.001,1.6-6.101c0.101-0.6-0.399-1.2,0.2-1.7
		c0-0.1,0.101-0.3,0-0.4c-0.7-1.199-0.7-2.6-1.1-4c-0.2-0.6-0.3-1.2-0.5-1.9c0.1-0.1,0.2-0.1,0.399-0.3c0-0.399-0.6-0.399-0.699-0.7
		c-0.201-0.5-0.301-1-0.5-1.5c-0.201-0.7-0.301-1.399-0.601-2.1c-0.101-0.2-0.5-0.3-1-0.7c-0.101-0.2-0.2-0.7-0.3-1.2
		c-0.2-0.4-0.2-0.8-0.4-1.1c-1-1.4-1.6-2.9-2-4.501c-0.2-0.8-0.6-1.6-1.1-2.3c-0.4-0.4-0.601-0.9-0.4-1.601c0-0.3-0.2-0.699-0.4-1.1
		c-0.3-0.8-0.699-1.601-1.199-2.4c-0.101-0.3-0.4-0.7-0.4-1c-0.1-0.9-0.4-1.7-0.9-2.4c-0.4-0.8-0.699-1.5-1.1-2.3
		c-0.1-0.3-0.301-0.5-0.301-0.7c-0.399-1.7-1.199-3.1-2-4.5c-0.4-0.8-0.8-1.601-0.699-2.4c0-1.1-0.801-1.9-0.9-3
		c0-1.3-0.6-2.5-0.9-3.8c-0.4-1.601-0.4-3.301-0.199-4.9c0.1-0.9,0.299-1.801,0.399-2.601c0.101-1.1,0.3-2,1.3-2.8
		c0.5-0.4,0.6-1.4,1.2-1.9c0.5-0.5,1.2-0.7,1.8-1.1c0.4-0.2,0.801-0.501,1.201-0.801c1.299-1,2.799-1.7,4.399-2.1
		c0.5-0.101,1.001-0.101,1.601-0.2c0.8,0,1.6,0,2.4-0.1h-0.101c0.3,0.3,0.601,0.3,0.899,0c0.501,0,1.101-0.101,1.601-0.101
		c0.9,0,1.601,0.3,2.4,0.601c0.899,0.399,1.5,0.8,2,1.5c0.5,0.699,1,1.399,1.5,2.1c0.2,0.2,0.3,0.4,0.3,0.5
		c0.301,2.301,1.4,4.301,1.5,6.601c0,0.6,0.5,1.101,0,1.8c-0.399,0.5,0.701,0.601,0.601,1.2c-0.101,0.101-0.3,0.3-0.5,0.601
		c0.7,1.399,0.8,3,1.3,4.7c-0.1,0.1-0.5,0.2-0.5,0.3c-0.199,0.9-0.9,1.1-1.6,1.2c-0.801,0.2-1.7,0.3-2.5,0.3
		c-1.4,0.1-2.5-0.5-3.601-1.2c-0.2-0.2-0.4-0.5-0.5-0.8c-0.2-1-0.4-2-0.5-3c-0.101-0.7,0-1.4,0.1-2.101c0-2.9-0.399-5.7-1.601-8.4
		c-0.199-0.4-0.5-0.8-0.799-1.1c-0.801-0.9-2.4-1-3.4-0.2c-2.101,1.8-3.201,4-3.201,6.8c0,0.5-0.299,1.001-0.299,1.501
		c0,0.8-0.4,1.5,0,2.3c0.199,0.3-0.101,0.8-0.201,1.1c0.201,0.4,1,0.5,0.5,1.101c-0.299,0.6-0.1,1.1,0.201,1.5
		c0.699,1.1,0.699,1.1,0.6,2c0,0.2,0,0.5-0.1,0.8c0,0,0,0.101,0,0.3c0.199,0.101,0.5,0.301,0.699,0.501c0.601,0.5,0.301,1.5,1.101,2
		c0.6,0.3,0.899,1,1.101,1.8c0.1,0.6,0.299,1.1,0.6,1.7c0.199,0.399,0.4,0.7,0.699,1.2c-0.1,0.399-0.5,0.6-1.1,0.5
		c0.2,1.2,0.9,0.3,1.2,0.5c0.7,0.8-0.399,0.7-0.5,1c0,0.2,0,0.4,0.101,0.4c0.699,0.5,1.199,1.199,1.6,1.899
		c0.4,0.601,0.8,1.2,1.4,1.7c0.5,0.4,1,1,1.199,1.7c0.5,1.5,1.5,2.9,1.4,4.5c0.7,0.7,0.301,1.801,1.2,2.5
		c0.399,0.2,0.601,0.9,0.601,1.4c-0.101,1,0.399,1.601,1,2.3c-0.201,0.301-0.301,0.601-0.5,0.9c0.5,0.4,1,0.9,1.6,1.4
		c-0.301,0.399-0.6,0.8-0.9,1.2c0.2,0.3,0.301,0.7,0.5,1h0.1c-0.1,0.2-0.299,0.399-0.299,0.5c0,0.5,0.5,0.2,0.699,0.3
		c0,0.1,0,0.3,0,0.4c-0.199,1.399-0.199,1.5,1.2,2.399c-0.2,0.301-0.5,0.7-0.7,1c0.301,0.101,0.601,0.2,0.9,0.301
		c0.1,0.1,0,0.399,0,0.6c-0.1-0.1-0.3-0.1-0.5-0.1c0.1,1-0.3,2,0.4,3c0.1,0.1,0.1,0.4,0.1,0.7c0.2,0.8,0.4,1.6,0.7,2.4
		c0.601,1.899,0.2,3.7-0.3,5.5c0,0.2-0.4,0.2-0.4,0.399c-0.1,0.2-0.1,0.7-0.1,0.7c0.9,0.4-0.2,1,0.3,1.5
		c0.399,0.4-0.3,0.9-0.601,1.301c-0.1,0.199-0.199,0.3-0.199,0.5c-0.9,1.8-2.4,2.8-4.101,3.6c-0.399,0.2-0.899,0.301-1.2,0.601
		c-0.9,0.8-1.9,0.899-3,0.7c-0.1-0.2-0.301-0.4-0.4-0.601c0.301,0,0.7,0.7,1.1,0c-0.399,0-0.799,0-1.1,0c-0.199,0.2-0.3,0.3-0.6,0.7
		c0.5-0.1,0.8-0.1,1.1-0.1C244.198,80.525,243.397,80.425,242.597,80.225z M241.397,28.722c-0.1,0.1-0.3,0.1-0.3,0.2
		c0,0,0,0.1,0.1,0.1c0.101,0,0.2-0.1,0.3-0.1C241.397,28.822,241.397,28.722,241.397,28.722z M244.698,1.521
		c0.199-0.301,0.5-0.2,0.799,0c-0.299,0-0.6,0-0.899,0H244.698z M251.797,53.524c0.1,0,0.1,0.1,0.2,0.1
		c0.601,0.101,0.601,0.101,0.3,0.7c-0.1-0.3-0.3-0.5-0.4-0.8H251.797z"/>
	<path fill="#FFFFFF" d="M267.396,53.923c-0.2,0.601,0.601,1,0.101,1.5c-0.5,0.601,0.3,1.001,0.1,1.501c-0.1,0.6-0.1,1.1,0.4,1.5
		c0.1,0,0.1,0.2,0.1,0.3c-0.1,2.3,0.301,4.601,0.2,6.9c-0.101,1.7,0.101,3.4,0.2,5.101c0.1,1.899,0.1,3.8,0.6,5.7
		c0.301,1.1-0.3,2.2-0.8,3.4c-0.9,0.3-2,0.8-3.001,1.199c-1.1,0.4-1.899,0-2.699-0.8c-0.301-0.3-0.6-0.6-1-0.899
		c-1.101-0.7-1.5-1.601-1.301-2.9c0.2-1.3,0.2-2.601,0.4-3.9c0-0.2,0.1-0.4,0.1-0.6c-0.6-2.801,0.101-5.501-0.3-8.301
		c-0.1-1.3,0-2.601,0.101-4c0.199-2.301,0.1-4.601,0-6.9c0-3.501,0.399-6.9,0.199-10.301c-0.1-1.2,0-2.4,0.2-3.601
		c0.2-1.9,0.4-3.8,0-5.7c-0.2-0.7,0.101-1.5,0-2.2c0-1.2-0.2-2.4-0.3-3.601c0-0.8,0-1.7,0-2.5c0-0.5-0.2-0.899-0.3-1.4
		c-0.101-1.1,0.1-2.399-0.3-3.5c0.399-1-0.101-1.899,0-2.9c0.1-0.6,0.1-1.199,0-1.8c-0.301-3-0.5-6-0.701-9.101
		c-0.1-1.1-0.1-2.2-0.1-3.3c0-0.5,0.4-1,0.801-1c1.1,0.1,2.1-0.2,3.199-0.3c0.701-0.101,1.4,0.199,2.101,0.8
		c0,1.3,0.101,2.6,0.101,3.9c0,0.399,0.1,0.8,0.299,1.1c0.301,0.8,0.9,1.601,0.4,2.601c-0.199,0.199,0,0.5,0.101,0.8
		c0.3,1,0.3,2,0.1,3c-0.1,0.8-0.399,1.7,0.2,2.5c0.1,0.101,0.2,0.2,0.2,0.3c-0.101,0.9-0.101,1.7,0,2.601c0.1,0.8,0.2,1.601,0.2,2.5
		c0,0.2-0.2,0.4-0.101,0.5c0.9,0.9,0.4,2,0.4,3c0,0.7-0.101,1.4,0.399,2.001c5.501-0.301,11.001-0.601,16.701-0.9
		c0.4-1.2,0.301-2.5,0.2-3.7c0-0.4-0.101-0.8-0.101-1.2c-0.199-1.8,0.201-3.601-0.199-5.5c-0.301-1.7-0.2-3.601-0.301-5.301
		c-0.199-1.2-0.399-2.4-0.6-3.601c-0.199-1-0.3-2,0.2-3c0.899-0.399,1.9-0.8,2.8-1.3c1.101-0.5,2.101,0.3,3.201,0
		c0.299,1,0.699,1.7,1,2.5c0,0.101,0,0.3,0,0.4c-0.301,0.7-0.301,1.399-0.101,2.2c-0.601,0.7-0.101,1.399,0.101,2.1
		c0.1,0.601,0,1.2-0.101,1.801c-0.3,1.1,0.101,2.3,0,3.5c-0.101,1.899,0.2,3.8,0.2,5.7c-0.1,0.7,0.199,1.5,0.4,2.3
		c0,0.3,0.1,0.5,0.1,0.801c-0.301,2.199,0,4.399,0,6.7c0,0.2,0.1,0.5,0,0.8c-0.301,1.3-0.2,2.8-0.5,4.2c0,0.2-0.2,0.5-0.1,0.5
		c0.699,0.7-0.301,1.7,0.399,2.3c0.399,0.4-0.5,0.801,0.101,1.2c0.6,0.4-0.201,0.801-0.201,1.2c-0.1,0.5,0,0.8,0.201,1.101
		c0.199,0.399,0.399,1,0.299,1.3c-0.199,0.5-0.299,0.9-0.199,1.5c0.199,0.5-0.1,1,0.199,1.5c0.101,0.2,0.101,0.4,0.101,0.601
		c-0.101,0.8-0.2,1.6-0.3,2.3c0.7,0.7,0.1,1.4,0.199,2.1c0.101,0.801,0.201,1.601,0,2.301c-0.199,1.1,0,2.2,0,3.3
		c0,0.2,0.101,0.4,0.101,0.601c-0.2,1.2,0.601,2.1,0.3,3.3c-0.3,1.1-0.1,2.3-0.1,3.4c0.1,2.1,0.1,4.3,0.1,6.5
		c0,0.601-0.199,1.301-0.3,1.9c-0.101,0.7-0.3,1.3,0.101,2c0.3,0.601-0.4,1.3,0,2c0.199,0.601-0.101,1.301-0.101,2
		c-0.101,0.7-0.601,1.2-1.101,1.601c-0.899,0.6-1.699,1.2-2.799,1.4c-2.101,0.399-3.4-0.501-3.4-2.7c0-0.301,0-0.601-0.201-0.801
		c-1-1.399-1.1-3-1-4.5c0.101-1.1-0.1-2.2,0.101-3.3c0-0.4-0.101-0.801-0.2-1.2c-0.199-0.4-0.4-0.9,0.2-1.2c0-0.101,0.101-0.3,0-0.4
		c-0.2-0.899,0-1.7,0.101-2.6c0.1-0.601,0.299-1.2-0.101-1.801c-0.2-0.5-0.101-1.2-0.101-1.8c-0.1-0.8,0.601-1.5,0.201-2.4
		c-0.301-0.7-0.301-1.5-0.5-2.2c-0.201-0.6-0.301-1.3,0.199-1.7c0.6-0.5,0.5-1,0.301-1.5c-0.5-1-0.201-2.2-0.301-3.3
		c-0.1-0.1-0.1-0.4,0-0.5c0.9-0.8,0.301-1.8,0.301-2.7c0.1-0.6-0.101-1.2,0.299-1.8c0.101-0.101,0-0.4,0-0.7
		c0.101-1.801,0-3.5,0.4-5.301c-0.3-0.8,0-1.399,0.5-1.899c-0.199-0.301-0.5-0.601-0.5-0.9c-0.1-0.2,0.1-0.4,0.2-0.7
		c0.101-0.4-0.101-1.7-0.2-1.9c-0.5-0.5-1.1-0.3-1.699-0.3c-2.301,0.101-4.701-0.1-7.001,0.101c-2.2,0.1-4.3,0.5-6.501,0.8
		c-0.8,0.2-1.3,0.8-1.399,1.5c-0.101,1.1-0.101,2.3-0.101,3.4c0,0.2,0.2,0.5,0.301,0.7c0.199,0.399,0.199,0.8,0,1.1
		c-0.101,0.2-0.2,0.5-0.2,0.7c0.3,1.9,0.2,3.7-0.101,5.5c-0.1,0.601-0.199,1,0,1.601c0.4,0.8,0.101,1.7-0.1,2.5
		c-0.2,0.399-0.5,0.7,0,1.1c0,0.101-0.4,0.5-0.6,0.9C266.896,53.524,267.596,53.423,267.396,53.923z M284.097,59.124l0.2,0.1
		l-0.1-0.2L284.097,59.124z M285.797,39.323c-0.1-0.1-0.1-0.1-0.1-0.1c-0.101,0-0.101,0.1-0.2,0.1c0.1,0,0.1,0.101,0.2,0.101
		C285.698,39.323,285.698,39.323,285.797,39.323z M286.397,76.425l0.101,0.1h0.1v-0.1C286.497,76.425,286.497,76.425,286.397,76.425
		z M289.198,7.321c0,0,0-0.1-0.1-0.1h-0.101c0,0.1,0,0.1,0.101,0.2C289.098,7.321,289.198,7.321,289.198,7.321z"/>
</g>
</svg>
